<svg xmlns="http://www.w3.org/2000/svg" width="28" height="28.001" viewBox="0 0 28 28.001"><g transform="translate(-1678 -3127)"><rect width="28" height="28" transform="translate(1678 3127)" fill="none"/><path d="M292.147-835.994l-11.4-11.406a1.426,1.426,0,0,1-.44-1.074,1.511,1.511,0,0,1,.463-1.075A1.467,1.467,0,0,1,281.84-850a1.469,1.469,0,0,1,1.075.451l11.592,11.615a2.653,2.653,0,0,1,.608.92,2.79,2.79,0,0,1,.2,1.019,2.79,2.79,0,0,1-.2,1.019,2.656,2.656,0,0,1-.608.92L282.891-822.44a1.413,1.413,0,0,1-1.062.44,1.5,1.5,0,0,1-1.063-.463,1.467,1.467,0,0,1-.451-1.074,1.468,1.468,0,0,1,.451-1.075Z" transform="translate(1404.193 3977)" fill="#0a509b"/></g></svg>