<svg width="17" height="17" viewBox="0 0 17 17" fill="none" xmlns="http://www.w3.org/2000/svg">
<path fill-rule="evenodd" clip-rule="evenodd" d="M2.28012 1.5C2.28012 0.671573 2.92275 0 3.71548 0H13.2845C14.0772 0 14.7199 0.671573 14.7199 1.5V3.3246L16.577 5.75061C17.4475 6.8877 16.8894 8.50005 15.6768 8.90496V15.5C15.6768 16.3284 15.0341 17 14.2414 17H2.75857C1.96584 17 1.32321 16.3284 1.32321 15.5V8.90495C0.110546 8.50003 -0.447495 6.88769 0.422968 5.75061L2.28012 3.32462V1.5ZM14.2414 16H11V12.2857C11 11.5756 10.3284 11 9.5 11H7.5C6.67157 11 6 11.5756 6 12.2857V16H2.75857C2.49433 16 2.28012 15.7761 2.28012 15.5V9H14.7199V15.5C14.7199 15.7761 14.5057 16 14.2414 16ZM7 16H10V12.2857C10 12.049 9.77614 11.8571 9.5 11.8571H7.5C7.22386 11.8571 7 12.049 7 12.2857V16ZM8.97845 4H9.9832L10.366 8H8.97845V4ZM11.9927 4H10.9449L11.3276 8H13.141L11.9927 4ZM14.14 8H15.0826C15.885 8 16.3311 7.03007 15.8298 6.3753L14.0115 4H12.9917L14.14 8ZM7.02158 4H8.02155V8H6.63882L7.02158 4ZM6.05991 4H5.04943L3.90115 8H5.67715L6.05991 4ZM2.98853 4H4.05039L2.90211 8H1.9174C1.11503 8 0.668947 7.03007 1.17018 6.3753L2.98853 4ZM13.763 1.5V3H3.23702V1.5C3.23702 1.22386 3.45123 1 3.71548 1H13.2845C13.5488 1 13.763 1.22386 13.763 1.5Z" fill="#0A509A"/>
</svg>
