<svg width="22" height="16" viewBox="0 0 22 16" fill="none" xmlns="http://www.w3.org/2000/svg">
<path d="M18.4029 9.5829C18.5483 10.5277 17.8635 11.4578 16.6658 11.3485C16.488 12.2107 15.9849 12.7215 15.0909 12.7894C14.804 13.9625 14.5377 14.2342 13.5336 14.3877C13.4825 14.5845 13.4471 14.7863 13.3784 14.9753C13.0915 15.7675 12.0432 16.3767 11.152 15.7242C10.9379 15.5677 10.7777 15.5599 10.5262 15.6868C9.73626 16.0854 8.82156 15.7252 8.45214 14.9133C8.43249 14.87 8.40989 14.8276 8.37551 14.7578C7.96679 14.927 7.56298 14.9241 7.16507 14.7322C6.776 14.5452 6.52841 14.2312 6.36434 13.8484C5.03502 14.0137 4.49072 13.6653 4.24215 12.5581C3.87961 12.4056 3.51215 12.3258 3.24 12.1201C2.57485 11.6162 2.48938 10.7196 2.99929 10.014C3.12014 9.84764 3.1506 9.72167 3.04645 9.53467C2.93641 9.33685 2.87157 9.11344 2.81065 8.95991C2.49625 9.00616 2.20544 9.07801 1.9156 9.07899C1.75938 9.07899 1.59039 8.97565 1.44891 8.88511C1.13943 8.6863 0.839767 8.47076 0.542071 8.25424C-0.0690416 7.80939 -0.168274 7.1864 0.268937 6.56341C0.702217 5.94632 1.13845 5.33219 1.57369 4.71707C2.55226 3.33232 3.52787 1.94461 4.51233 0.563795C4.96428 -0.0700225 5.57638 -0.17041 6.21598 0.267554C6.45276 0.428961 6.67775 0.608083 6.91748 0.763585C7.42642 1.09329 7.68776 1.53125 7.53744 2.17393C7.96581 2.17393 8.37649 2.13948 8.77931 2.18278C9.23912 2.23298 9.6272 2.14539 10.0202 1.8895C10.2275 1.75466 10.5321 1.72514 10.7924 1.72612C12.3802 1.73203 13.9689 1.76647 15.5566 1.77631C15.8228 1.77828 16.091 1.71726 16.3553 1.6651C16.4094 1.65428 16.4742 1.55783 16.485 1.49287C16.5734 0.972233 16.8839 0.670087 17.383 0.535253C17.722 0.443724 18.0551 0.328574 18.394 0.238028C19.0542 0.0618588 19.6182 0.366957 19.8127 1.02439C20.527 3.43369 21.2354 5.84397 21.9389 8.25621C22.1354 8.93038 21.8514 9.46283 21.1853 9.68328C20.7667 9.82107 20.3413 9.94213 19.9129 10.0484C19.4944 10.1518 19.127 10.015 18.8568 9.69411C18.7182 9.52877 18.5954 9.50416 18.4029 9.5829ZM6.53136 9.49629C7.54726 9.41362 8.15346 9.90079 8.40596 10.8692C9.50636 10.8279 10.0251 11.4273 10.1469 12.4489C10.7679 12.4646 11.2424 12.7126 11.5303 13.2529C11.8201 13.7962 11.7681 14.3375 11.4389 14.8601C11.5332 14.9211 11.6069 14.9713 11.6826 15.0186C11.999 15.2125 12.3585 15.1337 12.5619 14.8267C12.7732 14.5078 12.7044 14.1466 12.388 13.9261C12.2475 13.8277 12.1001 13.7372 11.9626 13.6348C11.7464 13.4744 11.6944 13.2303 11.827 13.0315C11.9518 12.8435 12.1905 12.7914 12.4136 12.9203C12.5767 13.0138 12.724 13.1329 12.8842 13.2313C13.0158 13.312 13.1504 13.3947 13.2929 13.4508C13.5916 13.5669 13.9394 13.4724 14.1172 13.2451C14.2783 13.0394 14.2764 12.7018 14.0926 12.44C14.0101 12.3219 13.903 12.2136 13.7881 12.126C13.5346 11.9322 13.2634 11.7619 13.0119 11.566C12.9146 11.4893 12.7918 11.3712 12.7869 11.2668C12.78 11.1232 12.839 10.943 12.9333 10.8358C13.0659 10.6872 13.2624 10.7108 13.4265 10.8249C13.8696 11.133 14.3019 11.4597 14.7558 11.7501C14.9012 11.8426 15.1076 11.8977 15.2775 11.881C15.5615 11.8524 15.7452 11.6467 15.8081 11.3692C15.8719 11.0858 15.7609 10.8545 15.5241 10.6872C15.0771 10.3702 14.6261 10.0573 14.1801 9.73741C13.9178 9.54943 13.8529 9.29453 14.0023 9.08687C14.1565 8.87133 14.4041 8.85263 14.6723 9.04159C15.0005 9.27189 15.3247 9.50908 15.6538 9.73741C15.983 9.96673 16.3033 10.2118 16.6501 10.4096C17.0706 10.6498 17.5687 10.3949 17.607 9.9313C17.6316 9.63604 17.4616 9.41657 17.2327 9.25319C15.2716 7.8586 13.3096 6.46499 11.3466 5.07433C11.0174 4.84108 10.8593 4.85781 10.5694 5.1324C10.2246 5.45915 9.89739 5.80755 9.52994 6.10576C9.28039 6.30752 8.99251 6.49156 8.69089 6.59293C7.9098 6.85571 7.06388 6.23174 7.07763 5.406C7.08156 5.14913 7.17195 4.87159 7.29574 4.64326C7.59049 4.10097 7.92847 3.58132 8.2694 3.02033C8.14364 3.02033 8.05718 3.01935 7.96974 3.02033C7.70053 3.02525 7.42936 3.04887 7.16212 3.03116C7.02752 3.0223 6.95384 3.05084 6.87917 3.15812C5.7493 4.76628 4.61451 6.37149 3.48366 7.97867C3.44927 8.0269 3.40703 8.10366 3.42275 8.14893C3.5151 8.42451 3.62416 8.69418 3.7283 8.97073C5.0753 7.95702 5.96152 8.12728 6.53136 9.49629ZM16.6953 2.54201C16.0213 2.5676 15.4033 2.61189 14.7843 2.61091C13.5483 2.60894 12.3114 2.59614 11.0764 2.55973C10.6716 2.54792 10.3267 2.62862 10.0025 2.87467C9.74903 3.06659 9.46411 3.21717 9.19785 3.39334C9.08978 3.46518 8.96893 3.54096 8.90212 3.64529C8.58085 4.14919 8.27431 4.66294 7.96777 5.1757C7.86657 5.34498 7.89408 5.53788 8.03655 5.64614C8.15052 5.73275 8.33719 5.77999 8.47769 5.75736C8.62801 5.73374 8.77931 5.62843 8.89918 5.52312C9.2853 5.18062 9.6557 4.82139 10.033 4.46905C10.5822 3.95826 11.1471 3.90807 11.7681 4.32635C12.1001 4.55074 12.4234 4.78892 12.7506 5.02118C14.4061 6.1963 16.0675 7.36454 17.7112 8.55639C17.9715 8.74535 18.1946 8.76405 18.4972 8.67548C17.887 6.60376 17.2838 4.54877 16.6953 2.54201ZM18.7114 1.04211C18.3753 1.13955 18.0305 1.23895 17.6847 1.33835C17.3241 1.44267 17.2789 1.51944 17.387 1.88753C18.0757 4.24269 18.7664 6.59687 19.4571 8.95203C19.5357 9.21875 19.6388 9.2778 19.9139 9.20398C20.2057 9.12525 20.4946 9.03569 20.7834 8.94908C21.1646 8.83491 21.2049 8.76602 21.0919 8.38416C20.6695 6.94822 20.2441 5.51328 19.8216 4.07833C19.5534 3.16796 19.2861 2.25758 19.0208 1.34622C18.9757 1.18679 18.9147 1.05195 18.7114 1.04211ZM2.12684 8.2759C2.21231 8.20306 2.31056 8.145 2.37344 8.06036C2.59254 7.76412 2.79886 7.45902 3.01108 7.15786C4.20973 5.45816 5.40837 3.75945 6.60701 2.05976C6.78681 1.80584 6.77109 1.72907 6.51073 1.54011C6.26511 1.36296 6.01948 1.1858 5.77288 1.00963C5.47616 0.798032 5.37988 0.809842 5.17159 1.10215C4.70097 1.76254 4.23527 2.42588 3.7676 3.08725C2.83718 4.40508 1.90577 5.72193 0.976333 7.03975C0.802432 7.28679 0.819134 7.398 1.05985 7.57122C1.32512 7.76313 1.59138 7.95308 1.86058 8.13909C1.9323 8.1883 2.01581 8.2198 2.12684 8.2759ZM5.86818 13.1112C5.96151 13.0502 6.15703 12.9793 6.26904 12.8406C6.65417 12.3642 7.01475 11.8672 7.37533 11.3712C7.58754 11.0789 7.52958 10.7196 7.25448 10.5051C6.96857 10.2827 6.60014 10.2905 6.37711 10.57C5.97429 11.0739 5.5921 11.5956 5.21384 12.1192C5.06843 12.3209 5.07727 12.5492 5.20303 12.7667C5.32879 12.9862 5.52725 13.0787 5.86818 13.1112ZM5.70115 9.82304C5.63238 9.67147 5.59308 9.50613 5.49581 9.38704C5.24724 9.08195 4.80021 9.09572 4.5143 9.43527C4.21464 9.79056 3.94838 10.1744 3.67918 10.5533C3.6163 10.6429 3.58486 10.7629 3.56619 10.8732C3.47973 11.3682 3.89533 11.7393 4.36398 11.5651C4.52904 11.504 4.68722 11.3712 4.80119 11.2324C5.05467 10.9234 5.28654 10.5956 5.51153 10.2649C5.59406 10.1419 5.63238 9.9874 5.70115 9.82304ZM7.79485 14.0373C8.08174 14.0255 8.29985 13.8956 8.47376 13.682C8.64962 13.4665 8.83924 13.2598 8.99546 13.0305C9.10746 12.8652 9.21063 12.6762 9.25287 12.4843C9.35702 12.0099 8.88935 11.6015 8.43446 11.7639C8.27922 11.819 8.11613 11.9135 8.00904 12.0355C7.74573 12.3367 7.50109 12.6565 7.27315 12.9862C7.11005 13.2214 7.14149 13.4842 7.27806 13.7303C7.39006 13.936 7.57084 14.0295 7.79485 14.0373ZM10.1862 13.3287C9.87774 13.3267 9.31477 13.8247 9.23028 14.1741C9.16642 14.4418 9.28923 14.745 9.52306 14.8955C9.76869 15.054 10.1076 15.0501 10.3179 14.8434C10.4957 14.6672 10.6628 14.4655 10.7787 14.246C10.9929 13.8375 10.6529 13.3317 10.1862 13.3287Z" fill="#0A509A"/>
</svg>
