<svg width="18" height="18" viewBox="0 0 18 18" fill="none" xmlns="http://www.w3.org/2000/svg">
<path d="M14.4845 10.6311C14.1329 10.2627 13.7075 10.0644 13.2555 10.0619C12.8071 10.0595 12.3759 10.2494 12.0057 10.614L10.8476 11.7508C10.7531 11.6995 10.6586 11.6518 10.5677 11.6041C10.4369 11.5381 10.3133 11.4757 10.2079 11.4098C9.13264 10.7217 8.15692 9.82723 7.22273 8.67172C6.77021 8.09585 6.46664 7.61153 6.24696 7.12041C6.54735 6.84986 6.82593 6.56831 7.09716 6.29761C7.19978 6.19656 7.30242 6.09187 7.40504 5.99082C8.17469 5.23291 8.18007 4.24583 7.41874 3.47957L6.42899 2.48343C6.31661 2.37031 6.20059 2.25355 6.09187 2.13683C5.87438 1.91064 5.646 1.67713 5.41025 1.4581C5.05856 1.10779 4.63673 0.920404 4.19201 0.917979C3.7473 0.915553 3.31615 1.09829 2.94973 1.44468C2.94606 1.44829 2.94606 1.44829 2.9424 1.4519L1.69624 2.68988C1.22712 3.15184 0.957928 3.71651 0.896022 4.37304C0.802758 5.43222 1.11086 6.42101 1.34792 7.06828C1.9298 8.65737 2.80393 10.1319 4.11126 11.7141C5.69751 13.6207 7.61037 15.13 9.79903 16.198C10.6353 16.5981 11.7518 17.0723 13.0017 17.159C13.0782 17.1631 13.1584 17.1671 13.2313 17.1675C14.0733 17.1721 14.7821 16.8748 15.3395 16.279C15.3432 16.2718 15.3505 16.2682 15.3542 16.2609C15.545 16.0333 15.7648 15.8277 15.9957 15.6076C16.1532 15.4596 16.3145 15.3045 16.4721 15.142C16.835 14.7702 17.0269 14.3358 17.0294 13.8894C17.0318 13.4394 16.841 13.0065 16.4748 12.6416L14.4845 10.6311ZM15.7686 14.4595C15.765 14.4595 15.765 14.4631 15.7686 14.4595C15.6256 14.6112 15.4791 14.7483 15.3215 14.8998C15.0833 15.1236 14.8414 15.3581 14.614 15.6218C14.2437 16.0117 13.8089 16.1944 13.2403 16.1913C13.1856 16.191 13.1273 16.1907 13.0726 16.1868C11.9903 16.1119 10.9866 15.6855 10.234 15.3221C8.17619 14.3165 6.37221 12.895 4.8765 11.0977C3.64161 9.59938 2.81802 8.21584 2.27567 6.73221C1.94159 5.82675 1.8215 5.12205 1.8798 4.45824C1.91856 4.03385 2.08452 3.68274 2.38871 3.38318L3.63848 2.15248C3.81801 1.98652 4.00805 1.89683 4.19396 1.89784C4.42361 1.89909 4.60876 2.03801 4.72477 2.15477C4.7284 2.15842 4.73203 2.16207 4.73565 2.16572C4.95688 2.37378 5.16714 2.58905 5.38825 2.81889C5.50062 2.93563 5.61663 3.05239 5.73262 3.17279L6.72236 4.16892C7.10666 4.5557 7.10472 4.91134 6.71623 5.29391C6.60994 5.39857 6.5073 5.50325 6.40104 5.60429C6.09314 5.91471 5.79994 6.20344 5.48126 6.48477C5.47393 6.49199 5.46662 6.49558 5.46293 6.50281C5.14774 6.8132 5.2044 7.11835 5.26889 7.32556C5.27248 7.33647 5.27606 7.34737 5.27965 7.35828C5.53505 7.98387 5.89637 8.57376 6.44662 9.27717L6.45025 9.28082C7.4496 10.5202 8.50511 11.4876 9.67121 12.2307C9.82015 12.3259 9.97283 12.4029 10.1182 12.4763C10.2491 12.5423 10.3727 12.6047 10.4781 12.6706C10.4926 12.6779 10.5071 12.6889 10.5217 12.6962C10.6453 12.7586 10.7618 12.7883 10.8821 12.7889C11.1846 12.7906 11.3752 12.6029 11.4375 12.5415L12.6909 11.3072C12.8155 11.1845 13.0132 11.0368 13.2428 11.0381C13.4688 11.0393 13.654 11.1818 13.7663 11.3058C13.7699 11.3095 13.7699 11.3095 13.7736 11.3131L15.7712 13.3237C16.1446 13.6959 16.1425 14.0769 15.7686 14.4595Z" fill="#004E9D"/>
</svg>
