<svg width="69" height="57" viewBox="0 0 69 57" fill="none" xmlns="http://www.w3.org/2000/svg">
<path fill-rule="evenodd" clip-rule="evenodd" d="M49 18C47.8954 18 47 18.8954 47 20V33C47 34.1046 47.8954 35 49 35H59C60.1046 35 61 34.1046 61 33V29.3333C61 28.9006 60.8596 28.4795 60.6 28.1333L53.6 18.8C53.2223 18.2964 52.6295 18 52 18H49ZM49 20H52L59 29.3333V33H49V20Z" fill="#0A509A"/>
<path fill-rule="evenodd" clip-rule="evenodd" d="M0 7C0 3.13401 3.13401 0 7 0H38C41.866 0 45 3.13401 45 7V11H53.4172C55.6854 11 57.8131 12.099 59.1258 13.9488L67.7086 26.0427C68.5487 27.2265 69 28.6422 69 30.0939V43C69 46.866 65.866 50 62 50H60.777C59.8675 54.008 56.2832 57 52 57C47.7168 57 44.1325 54.008 43.223 50H30.777C29.8675 54.008 26.2832 57 22 57C17.7168 57 14.1325 54.008 13.223 50H13C9.13401 50 6 46.866 6 43V36.9291C2.60771 36.4439 0 33.5265 0 30V7ZM13.223 46C14.1325 41.992 17.7168 39 22 39C26.2832 39 29.8675 41.992 30.777 46H43.223C44.1325 41.992 47.7168 39 52 39C56.2832 39 59.8675 41.992 60.777 46H62C63.6569 46 65 44.6569 65 43V30.0939C65 29.4718 64.8066 28.865 64.4465 28.3577L55.8638 16.2638C55.3012 15.471 54.3893 15 53.4172 15H45V30C45 33.866 41.866 37 38 37H10V43C10 44.6569 11.3431 46 13 46H13.223ZM17 48C17 50.7614 19.2386 53 22 53C24.7614 53 27 50.7614 27 48C27 45.2386 24.7614 43 22 43C19.2386 43 17 45.2386 17 48ZM52 43C54.7614 43 57 45.2386 57 48C57 50.7614 54.7614 53 52 53C49.2386 53 47 50.7614 47 48C47 45.2386 49.2386 43 52 43ZM41 7V30C41 31.6569 39.6569 33 38 33H7C5.34315 33 4 31.6569 4 30V7C4 5.34315 5.34315 4 7 4H38C39.6569 4 41 5.34315 41 7Z" fill="#0A509A"/>
</svg>
