<svg width="16" height="16" viewBox="0 0 16 16" fill="none" xmlns="http://www.w3.org/2000/svg">
<path d="M10.5553 11.9981L10.0521 12.6279L10.8399 12.7989C12.7058 13.2038 14.2898 13.9924 15.3983 15.0025C15.4683 15.0662 15.4903 15.1218 15.4971 15.1592C15.5045 15.1992 15.4994 15.2453 15.4754 15.2943C15.4272 15.3927 15.3 15.5 15.0925 15.5H0.90775C0.700305 15.5 0.573062 15.3927 0.524866 15.2943C0.500885 15.2453 0.495779 15.1992 0.503116 15.1592C0.50999 15.1218 0.531974 15.0662 0.601947 15.0025C1.7111 13.9918 3.29619 13.2029 5.16347 12.7982L5.95142 12.6274L5.44823 11.9975C4.28028 10.5353 3.50001 8.22649 3.50001 6C3.50001 4.16296 4.03096 2.7898 4.83851 1.88272C5.64345 0.978561 6.75516 0.5 8.002 0.5C9.24884 0.5 10.3605 0.978561 11.1655 1.88272C11.973 2.7898 12.504 4.16296 12.504 6C12.504 8.22682 11.7235 10.536 10.5553 11.9981Z" stroke="white"/>
</svg>
