<svg width="65" height="65" viewBox="0 0 65 65" fill="none" xmlns="http://www.w3.org/2000/svg">
    <path d="M58.0316 25.9243C58.0316 26.3237 57.708 26.6475 57.3088 26.6475C56.9096 26.6475 56.5859 26.3237 56.5859 25.9243C56.5859 25.5249 56.9096 25.2012 57.3088 25.2012C57.708 25.2012 58.0316 25.5249 58.0316 25.9243Z" fill="#004E9D"/>
    <path d="M57.3088 29.583C57.708 29.583 58.0316 29.2593 58.0316 28.8599C58.0316 28.4605 57.708 28.1367 57.3088 28.1367C56.9096 28.1367 56.5859 28.4605 56.5859 28.8599C56.5859 29.2593 56.9096 29.583 57.3088 29.583Z" fill="#004E9D"/>
    <path d="M56.5653 27.3931C56.5653 27.7925 56.2417 28.1163 55.8425 28.1163C55.4433 28.1163 55.1196 27.7925 55.1196 27.3931C55.1196 26.9937 55.4433 26.6699 55.8425 26.6699C56.2417 26.6699 56.5653 26.9937 56.5653 27.3931Z" fill="#004E9D"/>
    <path d="M58.7751 28.1163C59.1744 28.1163 59.498 27.7925 59.498 27.3931C59.498 26.9937 59.1744 26.6699 58.7751 26.6699C58.3759 26.6699 58.0522 26.9937 58.0522 27.3931C58.0522 27.7925 58.3759 28.1163 58.7751 28.1163Z" fill="#004E9D"/>
    <path d="M48.5434 25.2012H49.5775V26.753H51.1287V27.7876H49.5775V29.3394H48.5434V27.7876H46.9922V26.753H48.5434V25.2012Z" fill="#004E9D"/>
    <path d="M33.4643 40.9369C33.4643 40.2412 33.5401 39.6932 33.6919 39.2929C33.8437 38.8878 34.0896 38.5376 34.4299 38.2421C34.7702 37.9466 35.0277 37.6774 35.2024 37.4344C35.3817 37.1866 35.4714 36.915 35.4714 36.6195C35.4714 35.8999 35.1725 35.5402 34.5748 35.5402C34.2988 35.5402 34.0758 35.645 33.9057 35.8547C33.7356 36.0644 33.6459 36.3479 33.6367 36.7053H31.3054C31.3146 35.7522 31.6043 35.0112 32.1745 34.4822C32.7447 33.9485 33.5447 33.6816 34.5748 33.6816C35.6001 33.6816 36.3933 33.927 36.9543 34.4179C37.5199 34.9087 37.8027 35.6069 37.8027 36.5123C37.8027 36.9078 37.7268 37.2676 37.5751 37.5916C37.4234 37.9157 37.1797 38.2469 36.844 38.5852L36.0508 39.3501C35.8255 39.5741 35.6692 39.8052 35.5818 40.0434C35.4944 40.277 35.4461 40.5748 35.437 40.9369H33.4643Z" fill="#004E9D"/>
    <path d="M33.1814 43.1103C33.1814 42.7577 33.3032 42.4694 33.5469 42.2454C33.7952 42.0167 34.1034 41.9023 34.4712 41.9023C34.8391 41.9023 35.1448 42.0167 35.3885 42.2454C35.6368 42.4694 35.761 42.7577 35.761 43.1103C35.761 43.463 35.6368 43.7537 35.3885 43.9824C35.1448 44.2064 34.8391 44.3184 34.4712 44.3184C34.1034 44.3184 33.7952 44.2064 33.5469 43.9824C33.3032 43.7537 33.1814 43.463 33.1814 43.1103Z" fill="#004E9D"/>
    <path fill-rule="evenodd" clip-rule="evenodd" d="M6.49735 13C4.86626 13 3.544 14.3228 3.544 15.9545V34.8636H21.8547V36.9318H16.2433V36.0455H0C0 38.0035 1.5867 39.5909 3.544 39.5909H21.8547V47.2727C21.8547 48.9045 23.1769 50.2273 24.808 50.2273H44.8907C46.5218 50.2273 47.844 48.9045 47.844 47.2727V34.7918L48.9997 33.8353C49.3092 33.5791 49.6232 33.3016 49.9375 33.0102C50.6157 32.3839 51.9589 31.9416 53.4815 31.9416C55.0081 31.9416 56.3211 32.3849 56.9633 33.0247L56.9783 33.0397L56.9937 33.0543C58.0252 34.0339 59.1808 34.9341 60.2676 35.3713L60.2885 35.3798L60.31 35.3878C60.7955 35.5688 61.3991 35.7041 62.0003 35.5577L62.082 35.538L62.1607 35.5107C62.8388 35.2763 63.2212 34.7367 63.4335 34.2406C63.7651 33.4671 63.8569 32.4743 63.8045 31.2619V31.2583C63.7496 30.058 63.5337 28.7764 63.2462 27.5734L63.2444 27.5643L63.242 27.5552C62.9516 26.3943 62.5681 25.304 62.07 24.4243C61.2595 22.9673 60.2509 22.1615 58.9972 21.9387C57.9422 21.7512 56.8525 22.0256 56.0002 22.2402L55.8596 22.2756L55.8531 22.2772L55.8466 22.2789C55.0838 22.4758 54.3807 22.6492 53.6065 22.7183H53.3329C52.5822 22.6492 51.8796 22.4759 51.1158 22.2787L51.0343 22.2572C50.1619 22.027 49.0473 21.7329 47.9615 21.93C46.7061 22.1579 45.6992 22.9728 44.8896 24.43C44.4157 25.2687 44.049 26.3151 43.7686 27.3727L43.6626 27.7727H36.7176L41.92 22.5682C42.3814 22.1067 42.3814 21.3584 41.92 20.8969C41.4587 20.4353 40.7107 20.4353 40.2494 20.8969L36.6214 24.5263V15.9545C36.6214 14.3228 35.2991 13 33.668 13H6.49735ZM48.7687 23.6367C48.5987 23.6341 48.4359 23.6456 48.2779 23.6742C47.687 23.7815 47.0694 24.1549 46.4376 25.2926L46.4352 25.297C46.2948 25.5448 46.1614 25.8262 46.0356 26.1343C45.8299 26.6377 45.6444 27.2122 45.4814 27.8272C45.6132 27.8527 45.7418 27.887 45.8667 27.9294C46.8578 28.2661 47.6125 29.1149 47.8157 30.1607C47.8514 30.3442 47.8701 30.5338 47.8701 30.7278V32.4473C48.142 32.2213 48.4226 31.9731 48.7087 31.7079L48.7096 31.7071C49.8397 30.6635 51.6922 30.1684 53.4555 30.1684C53.5222 30.1684 53.5891 30.1691 53.6561 30.1705C55.3608 30.2021 57.1387 30.6977 58.2137 31.7686C59.1984 32.7038 60.1579 33.4166 60.9285 33.7266C61.1551 33.811 61.3221 33.8422 61.4396 33.8465C61.4873 33.8466 61.5261 33.842 61.5559 33.8347C61.5899 33.8229 61.6776 33.778 61.779 33.5418C61.9525 33.1371 62.0569 32.4651 62.008 31.3383C61.9597 30.2817 61.7671 29.1154 61.4969 27.9849C61.2279 26.9092 60.8927 25.9862 60.502 25.2965L60.499 25.2921C59.8686 24.1562 59.2521 23.7885 58.6613 23.6836C58.5412 23.6622 58.4184 23.6507 58.2921 23.6476C57.7272 23.6389 57.0889 23.7954 56.2893 23.9953C55.5117 24.1961 54.665 24.409 53.7063 24.4889L53.6819 24.491H53.2553L53.2492 24.4905H53.2293L53.2041 24.4883C52.2701 24.4082 51.4228 24.1949 50.6455 23.9943L50.6427 23.9936C49.9045 23.7992 49.3018 23.6496 48.7687 23.6367ZM30.3687 20.8969L34.2587 24.7885V15.9545C34.2587 15.6282 33.9942 15.3636 33.668 15.3636H6.49735C6.1711 15.3636 5.90667 15.6282 5.90667 15.9545V32.5H21.8547V30.7273C21.8547 29.0955 23.1769 27.7727 24.808 27.7727H33.9004L28.698 22.5682C28.2367 22.1067 28.2367 21.3584 28.698 20.8969C29.1594 20.4353 29.9073 20.4353 30.3687 20.8969ZM24.2173 30.7273C24.2173 30.4009 24.4818 30.1364 24.808 30.1364H44.8907C45.2169 30.1364 45.4814 30.4009 45.4814 30.7273V47.2727C45.4814 47.5991 45.2169 47.8636 44.8907 47.8636H24.808C24.4818 47.8636 24.2173 47.5991 24.2173 47.2727V30.7273Z" fill="#004E9D"/>
    <path d="M49.6202 17.2067L49.6204 17.2044C49.6582 16.8822 49.429 16.5896 49.1067 16.5495C48.783 16.5092 48.4879 16.739 48.4476 17.0629L49.0316 17.1356C48.4476 17.0629 48.4475 17.0636 48.4475 17.0636L48.4472 17.0658L48.4468 17.0695L48.4457 17.0793L48.4443 17.0936L48.443 17.1078C48.441 17.1307 48.4388 17.1613 48.4372 17.1985C48.4338 17.2727 48.4327 17.3748 48.4402 17.4958C48.455 17.7343 48.5048 18.0655 48.6531 18.406C48.8038 18.752 49.058 19.1104 49.4744 19.378C49.8897 19.645 50.4244 19.795 51.0926 19.795C51.5826 19.795 51.8842 19.9035 52.0721 20.0243C52.2589 20.1445 52.3746 20.3031 52.4491 20.4742C52.5259 20.6507 52.5566 20.8365 52.5659 20.9858C52.5704 21.0587 52.5696 21.1182 52.5679 21.1572C52.567 21.1765 52.566 21.1903 52.5653 21.1978L52.5648 21.2035C52.5269 21.5257 52.7562 21.8185 53.0785 21.8586C53.4022 21.8989 53.6973 21.6691 53.7375 21.3452L53.1718 21.2748C53.7375 21.3452 53.7376 21.3446 53.7376 21.3446L53.7377 21.3439L53.7379 21.3424L53.7384 21.3386L53.7394 21.3289C53.7402 21.3213 53.7412 21.3118 53.7422 21.3003C53.7441 21.2775 53.7464 21.2469 53.748 21.2096C53.7513 21.1354 53.7525 21.0334 53.745 20.9124C53.7301 20.6739 53.6804 20.3427 53.5321 20.0021C53.3814 19.6561 53.1271 19.2978 52.7108 19.0301C52.2955 18.7631 51.7607 18.6132 51.0926 18.6132C50.6026 18.6132 50.3009 18.5046 50.1131 18.3838C49.9263 18.2637 49.8106 18.105 49.7361 17.934C49.6592 17.7575 49.6285 17.5716 49.6193 17.4223C49.6147 17.3494 49.6156 17.2899 49.6173 17.251C49.6181 17.2317 49.6192 17.2178 49.6199 17.2104L49.6202 17.2067Z" fill="#004E9D"/>
    <path d="M28.3521 52.0002C28.3521 51.3475 28.881 50.8184 29.5334 50.8184H40.1654C40.8178 50.8184 41.3467 51.3475 41.3467 52.0002C41.3467 52.6529 40.8178 53.182 40.1654 53.182H29.5334C28.881 53.182 28.3521 52.6529 28.3521 52.0002Z" fill="#004E9D"/>
</svg>
