<svg width="65" height="65" viewBox="0 0 65 65" fill="none" xmlns="http://www.w3.org/2000/svg">
    <path fill-rule="evenodd" clip-rule="evenodd" d="M12.8837 10.6007C12.8837 8.00911 14.8494 5.9082 17.2742 5.9082H46.5442C48.969 5.9082 50.9347 8.00911 50.9347 10.6007V16.3087L56.6154 23.898C59.278 27.4552 57.5711 32.4992 53.8616 33.7659V54.3975C53.8616 56.9891 51.8959 59.09 49.4711 59.09H14.3472C11.9223 59.09 9.95665 56.9891 9.95665 54.3975V33.7659C6.24732 32.4992 4.54037 27.4552 7.20297 23.898L12.8837 16.3087V10.6007ZM49.4711 55.9617H39.5563V44.3422C39.5563 42.1208 37.502 40.32 34.968 40.32H28.8504C26.3163 40.32 24.2621 42.1208 24.2621 44.3422V55.9617H14.3472C13.5389 55.9617 12.8837 55.2613 12.8837 54.3975V34.0633H50.9347V54.3975C50.9347 55.2613 50.2794 55.9617 49.4711 55.9617ZM27.321 55.9617H36.4974V44.3422C36.4974 43.6016 35.8127 43.0015 34.968 43.0015H28.8504C28.0057 43.0015 27.321 43.6016 27.321 44.3422V55.9617ZM33.3727 18.4216H36.4461L37.6168 30.9349H33.3727V18.4216ZM42.5927 18.4216H39.3877L40.5585 30.9349H46.1052L42.5927 18.4216ZM49.1611 30.9349H52.0442C54.4985 30.9349 55.863 27.9006 54.3298 25.8523L48.7678 18.4216H45.6486L49.1611 30.9349ZM27.387 18.4216H30.4456V30.9349H26.2162L27.387 18.4216ZM24.4454 18.4216H21.3545L17.8421 30.9349H23.2746L24.4454 18.4216ZM15.0506 18.4216H18.2986L14.7862 30.9349H11.7742C9.31986 30.9349 7.95537 27.9006 9.48856 25.8523L15.0506 18.4216ZM48.0076 10.6007V15.2932H15.8107V10.6007C15.8107 9.73686 16.4659 9.03654 17.2742 9.03654H46.5442C47.3524 9.03654 48.0076 9.73684 48.0076 10.6007Z" fill="#004E9D"/>
</svg>
