<svg width="65" height="65" viewBox="0 0 65 65" fill="none" xmlns="http://www.w3.org/2000/svg">
    <g clip-path="url(#clip0)">
        <path fill-rule="evenodd" clip-rule="evenodd" d="M33.9016 15.9581C36.8407 13.0622 41.1206 12.2926 44.7723 13.6491L38.7884 19.5451L39.018 25.2001L44.7574 25.4263L50.7414 19.5304C52.1181 23.1285 51.337 27.3454 48.3979 30.2412C45.1642 33.4274 40.3074 34.0397 36.4499 32.0783L34.4429 34.2062L35.8039 35.5473L37.3693 34.005C37.6795 33.6993 38.1825 33.6993 38.4927 34.005C38.6741 34.1837 38.7568 34.4378 38.7146 34.6872L38.5696 35.0034C37.9839 36.2813 39.2266 37.6325 40.5747 37.1837C41.3362 37.2095 42.0594 37.5192 42.5982 38.0501L51.1189 46.4455C52.2936 47.6029 52.2936 49.4796 51.1189 50.6371L49.4172 52.3137C48.2425 53.4711 46.3378 53.4711 45.163 52.3137L36.6423 43.9183C36.1036 43.3874 35.7893 42.6749 35.7631 41.9246C36.2186 40.5963 34.8472 39.3719 33.5502 39.949L33.2293 40.0918C32.9762 40.1334 32.7184 40.052 32.5369 39.8732C32.2267 39.5676 32.2267 39.072 32.5369 38.7663L34.1022 37.224L32.8036 35.9443L18.8676 50.72C17.2981 52.3841 14.6402 52.4321 13.0099 50.8257C11.3796 49.2194 11.4282 46.6006 13.1172 45.0542L28.1134 31.3231L19.8144 23.1462C19.7015 23.035 19.5485 22.9725 19.3889 22.9725H18.2833C18.0687 22.9725 17.8702 22.8598 17.7627 22.6768L14.8168 17.6632L15.9512 16.5455L21.0397 19.4481C21.2254 19.554 21.3398 19.7495 21.3398 19.9611V21.0504C21.3398 21.2076 21.4032 21.3583 21.516 21.4696L29.8774 29.708L32.0372 27.7305C30.0464 23.9296 30.6679 19.1443 33.9016 15.9581ZM17.6695 48.7552C16.9631 49.4512 15.8177 49.4512 15.1113 48.7552C14.4049 48.0592 14.4049 46.9306 15.1113 46.2347C15.8177 45.5386 16.9631 45.5386 17.6695 46.2347C18.3759 46.9306 18.3759 48.0592 17.6695 48.7552Z" fill="#004E9D"/>
    </g>
    <defs>
        <clipPath id="clip0">
            <rect width="40.1818" height="40.1818" fill="white" transform="translate(11.8181 13)"/>
        </clipPath>
    </defs>
</svg>
