<svg width="65" height="65" viewBox="0 0 65 65" fill="none" xmlns="http://www.w3.org/2000/svg">
    <g clip-path="url(#clip0)">
        <path d="M36.1324 53.1812C38.2853 53.1812 40.0306 51.4359 40.0306 49.283C40.0306 47.1301 38.2853 45.3848 36.1324 45.3848C33.9794 45.3848 32.2341 47.1301 32.2341 49.283C32.2341 51.4359 33.9794 53.1812 36.1324 53.1812Z" fill="#004E9D"/>
        <path d="M23.5469 53.1812C25.6999 53.1812 27.4452 51.4359 27.4452 49.283C27.4452 47.1301 25.6999 45.3848 23.5469 45.3848C21.394 45.3848 19.6487 47.1301 19.6487 49.283C19.6487 51.4359 21.394 53.1812 23.5469 53.1812Z" fill="#004E9D"/>
        <path d="M15.2339 43.1364H45.0319L52.8674 17.8218H57.0865L58.5933 13H48.9497L41.1142 38.3145H13.4578L15.2339 43.1364Z" fill="#004E9D"/>
        <path fill-rule="evenodd" clip-rule="evenodd" d="M37.7992 34.6986H12.1257L5.90918 17.8223H43.2238L37.7992 34.6986ZM23.4828 26.8085C23.3148 27.2373 23.2307 27.8244 23.2307 28.5698H25.4157C25.4259 28.1818 25.4794 27.8627 25.5762 27.6126C25.6729 27.3573 25.8461 27.1097 26.0956 26.8697L26.9743 26.0504C27.3461 25.6879 27.616 25.3331 27.784 24.9859C27.9522 24.6388 28.0362 24.2533 28.0362 23.8296C28.0362 22.8596 27.7229 22.1117 27.0965 21.5858C26.4751 21.06 25.5965 20.7971 24.4607 20.7971C23.3198 20.7971 22.4336 21.083 21.802 21.6548C21.1705 22.2215 20.8496 23.0153 20.8394 24.0364H23.4217C23.4319 23.6535 23.5312 23.3497 23.7197 23.1251C23.9081 22.9004 24.1552 22.7881 24.4607 22.7881C25.1228 22.7881 25.4539 23.1736 25.4539 23.9444C25.4539 24.261 25.3546 24.552 25.156 24.8174C24.9624 25.0778 24.6772 25.3663 24.3003 25.6828C23.9234 25.9993 23.6509 26.3746 23.4828 26.8085ZM23.3224 29.9712C23.0525 30.2111 22.9175 30.52 22.9175 30.8978C22.9175 31.2756 23.0525 31.587 23.3224 31.832C23.5974 32.072 23.9386 32.1919 24.3461 32.1919C24.7536 32.1919 25.0923 32.072 25.3622 31.832C25.6373 31.587 25.7748 31.2756 25.7748 30.8978C25.7748 30.52 25.6373 30.2111 25.3622 29.9712C25.0923 29.7261 24.7536 29.6036 24.3461 29.6036C23.9386 29.6036 23.5974 29.7261 23.3224 29.9712Z" fill="#0A509A"/>
    </g>
    <defs>
        <clipPath id="clip0">
            <rect width="53.1818" height="40.1818" fill="white" transform="translate(5.90918 13)"/>
        </clipPath>
    </defs>
</svg>
