<svg width="24" height="25" viewBox="0 0 24 25" fill="none" xmlns="http://www.w3.org/2000/svg">
<path d="M13.0714 20.2433C13.9471 20.2481 14.6608 19.5421 14.6656 18.6664C14.6704 17.7908 13.9644 17.077 13.0887 17.0722C12.213 17.0675 11.4993 17.7735 11.4945 18.6491C11.4898 19.5248 12.1957 20.2385 13.0714 20.2433Z" fill="#404040"/>
<path d="M7.95239 20.2153C8.82805 20.2201 9.54179 19.5141 9.54656 18.6385C9.55134 17.7628 8.84535 17.0491 7.96968 17.0443C7.09402 17.0395 6.38028 17.7455 6.37551 18.6212C6.37073 19.4968 7.07673 20.2106 7.95239 20.2153Z" fill="#404040"/>
<path d="M4.59356 16.1112L16.7133 16.1773L19.9564 5.89846L21.6724 5.90782L22.296 3.94998L18.3736 3.92859L15.1305 14.2074L3.88184 14.1461L4.59356 16.1112Z" fill="#404040"/>
<path d="M3.34819 12.6722L13.7904 12.7292L16.0342 5.87709L0.857178 5.79431L3.34819 12.6722Z" fill="#404040"/>
</svg>
