<svg width="15" height="15" viewBox="0 0 15 15" fill="none" xmlns="http://www.w3.org/2000/svg">
<path d="M10.0437 9.51026L9.41132 9.50681L9.18837 9.28946C9.97778 8.38123 10.4565 7.19915 10.4635 5.91043C10.4792 3.03683 8.16262 0.694835 5.28902 0.679163C2.41542 0.663491 0.0734171 2.98008 0.0577451 5.85368C0.0420732 8.72728 2.35867 11.0693 5.23227 11.085C6.52098 11.092 7.70822 10.6262 8.625 9.84672L8.8399 10.072L8.83645 10.7044L12.8169 14.7204L14.0161 13.5343L10.0437 9.51026ZM5.241 9.48406C3.24789 9.47319 1.64777 7.85552 1.65864 5.86241C1.66951 3.8693 3.28718 2.26918 5.28029 2.28005C7.27339 2.29092 8.87352 3.90859 8.86265 5.9017C8.85178 7.89481 7.23411 9.49493 5.241 9.48406Z" fill="white"/>
</svg>
