<svg xmlns="http://www.w3.org/2000/svg" width="34" height="55" viewBox="0 0 34 55"><g transform="translate(-504.001 -378.697)"><rect width="34" height="55" transform="translate(504.001 378.697)" fill="none"/><path d="M-225.281-10.718l.128.045a3.2,3.2,0,0,1,.565.265,2.421,2.421,0,0,0,1.46.357h.252q.268,0,.537,0c.283,0,.566,0,.849,0q.671,0,1.343,0,1.2,0,2.407,0l.844,0h1.286a.854.854,0,0,1,.458.2.617.617,0,0,1,.134.451c0,.056,0,.112,0,.17,0,.091,0,.091,0,.183,0,.062,0,.125,0,.189q0,.2,0,.4c0,.2,0,.4.006.605q0,.192,0,.384c0,.06,0,.121,0,.183,0,.42,0,.42-.176.645a.747.747,0,0,1-.663.142.587.587,0,0,1-.373-.321c-.054-.66-.046-1.039-.046-1.981l-5.875.058.582.524c.119.124.232.244.342.374l.087.1A10.56,10.56,0,0,1-218.786.071,10.1,10.1,0,0,1-221.551,5.9l-.088.093a9.143,9.143,0,0,1-3.054,2.176h-.116c.2.23.395.457.611.669.18.177.344.363.509.554.1.11.2.215.305.318.142.139.274.282.4.433s.286.318.44.469c.189.186.363.381.536.582.145.162.3.313.454.465s.285.309.422.469.266.28.4.416.279.3.414.461c.123.14.253.27.387.4a3.161,3.161,0,0,0,1.006-.935c.129-.145.267-.28.405-.416.105-.107.2-.218.3-.332.141-.163.286-.318.44-.469s.3-.3.436-.465c.175-.2.362-.393.554-.581.148-.15.285-.309.422-.469s.267-.28.405-.416c.105-.107.2-.218.3-.332.141-.163.286-.318.44-.469s.3-.3.436-.465c.175-.2.362-.393.554-.581.148-.15.285-.309.422-.469s.267-.28.405-.416c.105-.107.2-.218.3-.332.177-.205.365-.4.558-.585.148-.15.284-.309.421-.468s.277-.291.422-.431a.964.964,0,0,0,.2-.264h-.163q-.763,0-1.525-.007l-.784,0q-.379,0-.757,0h-.288c-.135,0-.27,0-.4,0h-.232a.862.862,0,0,1-.557-.328,1.154,1.154,0,0,1-.066-.421c0-.05,0-.1,0-.152s0-.11,0-.166,0-.116,0-.176q0-.288,0-.576,0-.2,0-.4,0-.42,0-.839,0-.538,0-1.076,0-.413,0-.827,0-.2,0-.4,0-.277,0-.555c0-.055,0-.109,0-.166a1,1,0,0,1,.3-.811.815.815,0,0,1,.538-.069.8.8,0,0,1,.407.349c.011.172.015.339.013.511,0,.052,0,.1,0,.158q0,.259,0,.518,0,.18,0,.359,0,.473,0,.946t0,.965q0,.947-.006,1.894h.194l1.813-.008.932,0,.9,0,.343,0h.481l.143,0a1.185,1.185,0,0,1,.721.2.838.838,0,0,1,.163.586,1.986,1.986,0,0,1-.636.818c-.194.191-.378.392-.563.591l-.239.253q-.812.861-1.618,1.727-.426.456-.853.911l-.733.784q-.694.744-1.39,1.485-.585.624-1.169,1.249-.749.8-1.5,1.6l-.111.118-.219.233q-.27.287-.535.578l-.1.114-.193.213a.97.97,0,0,1-.594.388.92.92,0,0,1-.7-.343q-.144-.156-.284-.316l-.113-.128-.2-.229c-.127-.144-.264-.277-.4-.412-.105-.107-.2-.218-.3-.332-.141-.163-.286-.318-.44-.469-.189-.186-.363-.381-.536-.582-.145-.162-.3-.313-.454-.465s-.285-.309-.422-.469c-.1-.11-.2-.213-.3-.316-.142-.139-.274-.282-.4-.433s-.286-.318-.44-.469c-.189-.186-.363-.38-.535-.581-.15-.168-.31-.324-.471-.48a1.328,1.328,0,0,1-.215-.277c-.311.035-.616.084-.923.143a9.92,9.92,0,0,1-1.578.206l-.2.007a10.721,10.721,0,0,1-7.548-3.028A10.058,10.058,0,0,1-239.061.72l-.033-.166a9.236,9.236,0,0,1-.1-1.674c0-.049,0-.1,0-.149A8.451,8.451,0,0,1-239-3.352l.04-.161a10.8,10.8,0,0,1,2.752-4.9l.1-.112a8.414,8.414,0,0,1,1.119-.936l.1-.075A10.367,10.367,0,0,1-225.281-10.718Zm-9.533,2.712-.146.125a8.908,8.908,0,0,0-3,5.751,9.529,9.529,0,0,0,2.461,7.217,7.232,7.232,0,0,0,.971.869l.15.117a9.092,9.092,0,0,0,6.7,1.714,9.143,9.143,0,0,0,5.862-3.44,10.392,10.392,0,0,0,.9-1.474l.062-.121a9.084,9.084,0,0,0,.4-6.886,9.263,9.263,0,0,0-4.725-5.193A8.944,8.944,0,0,0-234.814-8.006Z" transform="translate(743.197 404.362)" fill="#fff"/><path d="M-121.339-.1a7.852,7.852,0,0,1,5.182,1.575l.167.129a7.887,7.887,0,0,1,2.1,2.547l.081.144a7.844,7.844,0,0,1,.617,5.324l-.027.123a7.915,7.915,0,0,1-3.522,4.816,8.13,8.13,0,0,1-6.056.952,8.029,8.029,0,0,1-4.89-3.6,8.13,8.13,0,0,1-.939-5.974,8.1,8.1,0,0,1,3.451-4.813l.189-.122a8.1,8.1,0,0,1,2.952-1.041l.159-.027C-121.7-.087-121.519-.093-121.339-.1Zm-4.62,3.512a6.939,6.939,0,0,0-1.612,5.025,6.714,6.714,0,0,0,2.12,4.3,6.882,6.882,0,0,0,4.7,1.787,7.2,7.2,0,0,0,4.132-1.587l.158-.127a6.388,6.388,0,0,0,1.7-2.374l.087-.2a6.739,6.739,0,0,0-.087-5.1,6.8,6.8,0,0,0-.989-1.571l-.123-.15a6.6,6.6,0,0,0-4.388-2.288l-.143-.005-.212-.009A6.875,6.875,0,0,0-125.959,3.412Z" transform="translate(635.127 395.405)" fill="#fff"/><path d="M-115.845-.923a.825.825,0,0,1,.334.574.648.648,0,0,1-.215.452l-.112.123c-.225.237-.455.47-.687.7l-.167.167-.449.449-.472.472-.793.792-.914.914-.787.788-.469.469-.441.441-.237.238c-.727.724-.727.724-.972.793a.917.917,0,0,1-.6-.168A.765.765,0,0,1-123,5.767a1.9,1.9,0,0,1,.557-.814l.113-.113q.179-.177.359-.353l.238-.236.232-.229.107-.105c.173-.17.35-.334.534-.492.233-.2.452-.416.669-.635l.119-.12.254-.255.4-.4,1.142-1.148.7-.7.266-.268.372-.373.111-.112.1-.1.089-.089A.736.736,0,0,1-115.845-.923Z" transform="translate(633.477 400.479)" fill="#fff"/><path d="M-44.932-4.445a1.815,1.815,0,0,1,.792,1.194,2.02,2.02,0,0,1-.414,1.534,1.875,1.875,0,0,1-1.144.574,1.936,1.936,0,0,1-1.543-.549,1.833,1.833,0,0,1-.465-1.46,1.758,1.758,0,0,1,.658-1.2A1.939,1.939,0,0,1-44.932-4.445Zm-1.477,1.194a.873.873,0,0,0-.058.524.831.831,0,0,0,.349.349.775.775,0,0,0,.64-.175.551.551,0,0,0,.116-.433.7.7,0,0,0-.407-.5C-46.041-3.545-46.2-3.415-46.409-3.251Z" transform="translate(562.819 408.799)" fill="#fff"/><path d="M-42.624-3.279a2.066,2.066,0,0,1,.908,1.119,2.039,2.039,0,0,1-.152,1.343,2.09,2.09,0,0,1-1.257.908,1.94,1.94,0,0,1-1.467-.33,1.832,1.832,0,0,1-.651-1.043,1.949,1.949,0,0,1,.429-1.589A1.833,1.833,0,0,1-42.624-3.279Zm-1.339,1.3a.839.839,0,0,0-.058.524.814.814,0,0,0,.465.349.765.765,0,0,0,.574-.273.74.74,0,0,0,.007-.6.631.631,0,0,0-.494-.262A.727.727,0,0,0-43.962-1.98Z" transform="translate(555.021 402.235)" fill="#fff"/><path d="M.623,0A.623.623,0,1,1,0,.623.623.623,0,0,1,.623,0Z" transform="translate(526.939 399.25)" fill="#fff"/></g></svg>