<svg xmlns="http://www.w3.org/2000/svg" width="34" height="55" viewBox="0 0 34 55"><g transform="translate(-612 -3470.084)"><rect width="34" height="55" transform="translate(612 3470.084)" fill="none"/><path d="M214.578-798.1a2.5,2.5,0,0,1-1.847-.73,2.5,2.5,0,0,1-.73-1.847v-24.748a2.5,2.5,0,0,1,.73-1.847,2.5,2.5,0,0,1,1.847-.73h14.687l5.764,5.764v21.561a2.5,2.5,0,0,1-.73,1.848,2.5,2.5,0,0,1-1.847.73Zm14.086-23.538V-826.8H214.578a1.313,1.313,0,0,0-.945.43,1.315,1.315,0,0,0-.43.945v24.748a1.313,1.313,0,0,0,.43.945,1.315,1.315,0,0,0,.945.43h17.873a1.313,1.313,0,0,0,.945-.43,1.315,1.315,0,0,0,.43-.945v-20.96ZM213.2-826.8Z" transform="translate(402.582 4310.632)" fill="#fff"/><path d="M60.54,8.208h-.01c-.243,0-.386-.064-.426-.182s.022-.293.184-.521a4.917,4.917,0,0,1,.574-.644c.429-.417.884-.775.889-.778l.423-.319,1.459-1.1H58.769v.584a2.541,2.541,0,0,0-.178.513h-.955a2.222,2.222,0,0,1,.145-.815,1.942,1.942,0,0,1,.435-.661,2.045,2.045,0,0,1,.328-.268c.053-.035.079-.071.078-.106,0-.063-.091-.111-.156-.146-.037-.02-.066-.036-.063-.047s.046-.017.144-.017h1.984a5.748,5.748,0,0,1-.307-.652,1.943,1.943,0,0,1-.136-.721,2.453,2.453,0,0,1,.166-.914,2.246,2.246,0,0,1,.5-.751,2.229,2.229,0,0,1,.745-.5A2.409,2.409,0,0,1,62.406,0a2.031,2.031,0,0,1,1.1.315,3.52,3.52,0,0,1,.88.783l.887,1.236L66.157,1.1a3.267,3.267,0,0,1,.885-.789,2.147,2.147,0,0,1,.53-.232A2.1,2.1,0,0,1,68.142,0a2.385,2.385,0,0,1,.9.167,2.234,2.234,0,0,1,.744.5,2.245,2.245,0,0,1,.5.751,2.453,2.453,0,0,1,.166.914,2.189,2.189,0,0,1-.12.721,2.919,2.919,0,0,1-.324.652h9.537c.162,0,.243.015.27.049s.011.064,0,.111a.383.383,0,0,0,.122.423,1.942,1.942,0,0,1,.435.661,2.222,2.222,0,0,1,.145.815h-.955a.982.982,0,0,0-.179-.561V4.667H66.907l1.135,1.1.329.319s.327.322.627.69a3.857,3.857,0,0,1,.394.563.571.571,0,0,1,.1.443c-.036.089-.137.134-.3.134a1.676,1.676,0,0,1-.356-.048,3.055,3.055,0,0,1-1.315-.782,9.163,9.163,0,0,1-1.158-1.321,15.726,15.726,0,0,1-1.1-1.716v0c-.068.086-.685.865-1.47,1.715a16.771,16.771,0,0,1-1.718,1.651A2.888,2.888,0,0,1,60.54,8.208ZM68.134.959a1.321,1.321,0,0,0-.972.395,1.339,1.339,0,0,0-.392.978,1.339,1.339,0,0,0,.392.978,1.393,1.393,0,0,0,1.944,0,1.339,1.339,0,0,0,.392-.978,1.339,1.339,0,0,0-.392-.978,1.321,1.321,0,0,0-.972-.395Zm-5.728,0a1.321,1.321,0,0,0-.972.395,1.339,1.339,0,0,0-.392.978,1.339,1.339,0,0,0,.392.978,1.393,1.393,0,0,0,1.944,0,1.339,1.339,0,0,0,.392-.978,1.339,1.339,0,0,0-.392-.978,1.321,1.321,0,0,0-.972-.395Z" transform="translate(557.017 3487.216)" fill="#fff"/><path d="M16.475-110.416H13.93v1.126a1.186,1.186,0,0,1,.457-.294,1.741,1.741,0,0,1,.636-.114,1.754,1.754,0,0,1,1.016.277,1.633,1.633,0,0,1,.592.718,2.411,2.411,0,0,1,.188.955,2.09,2.09,0,0,1-.538,1.514,2.009,2.009,0,0,1-1.518.559,2.662,2.662,0,0,1-1.134-.224,1.738,1.738,0,0,1-.742-.624,1.808,1.808,0,0,1-.286-.922h1.363a.734.734,0,0,0,.237.42.744.744,0,0,0,.514.167.674.674,0,0,0,.571-.245,1.046,1.046,0,0,0,.188-.653.871.871,0,0,0-.2-.612.739.739,0,0,0-.571-.212.741.741,0,0,0-.457.135.628.628,0,0,0-.237.355H12.665v-3.549h3.81Zm1.11,1.681a3.922,3.922,0,0,1,.543-2.211,1.955,1.955,0,0,1,1.75-.808,1.955,1.955,0,0,1,1.75.808,3.922,3.922,0,0,1,.543,2.211,3.956,3.956,0,0,1-.543,2.228,1.955,1.955,0,0,1-1.75.808,1.955,1.955,0,0,1-1.75-.808,3.956,3.956,0,0,1-.543-2.227Zm3.215,0A3.521,3.521,0,0,0,20.62-110a.718.718,0,0,0-.742-.445.718.718,0,0,0-.742.445,3.519,3.519,0,0,0-.179,1.269,5.334,5.334,0,0,0,.065.918,1.174,1.174,0,0,0,.265.588.751.751,0,0,0,.592.224.751.751,0,0,0,.592-.224,1.174,1.174,0,0,0,.265-.587,5.334,5.334,0,0,0,.065-.918Z" transform="translate(612.359 3608.65)" fill="#fff"/><path d="M-8.94,29.321-9,9.878l.06-9.926.957.006-.06,9.922.06,19.439Z" transform="translate(630.761 3483.215)" fill="#fff"/><path d="M.6,0H4.9a.6.6,0,0,1,0,1.2H.6A.6.6,0,0,1,.6,0Z" transform="translate(624.961 3504.999)" fill="#fff"/><rect width="9.304" height="1.329" rx="0.665" transform="translate(625.101 3507.885)" fill="#fff"/></g></svg>