<svg xmlns="http://www.w3.org/2000/svg" width="16" height="16" viewBox="0 0 16 16">
  <g id="emailic" transform="translate(-423 -122)">
    <path id="mail_ic" d="M117.414-736.219a1.359,1.359,0,0,1-1-.418,1.359,1.359,0,0,1-.418-1v-8.953a1.359,1.359,0,0,1,.418-1,1.36,1.36,0,0,1,1-.418h13.173a1.352,1.352,0,0,1,1,.418,1.372,1.372,0,0,1,.41,1v8.953a1.372,1.372,0,0,1-.41,1,1.352,1.352,0,0,1-1,.418Zm13.444-9.26-6.473,3.811a.9.9,0,0,1-.188.091.609.609,0,0,1-.2.033.464.464,0,0,1-.185-.033q-.075-.033-.175-.084l-6.5-3.817v7.846a.263.263,0,0,0,.076.194.263.263,0,0,0,.194.076h13.173a.263.263,0,0,0,.194-.076.263.263,0,0,0,.076-.194ZM124-742.922l6.7-3.934H117.323Zm-6.857-2.84v0Z" transform="translate(306.999 872.109)" fill="#fff"/>
    <path id="Path_1" data-name="Path 1" d="M0,0H16V16H0Z" transform="translate(423 122)" fill="none"/>
  </g>
</svg>
