<svg width="40" height="40" viewBox="0 0 40 40" fill="none" xmlns="http://www.w3.org/2000/svg">
<path fill-rule="evenodd" clip-rule="evenodd" d="M20 40C31.0457 40 40 31.0457 40 20C40 8.9543 31.0457 0 20 0C8.9543 0 0 8.9543 0 20C0 31.0457 8.9543 40 20 40ZM16.7769 21.3711V33H21.4057V21.3711H25.0299L25.6061 16.75H21.4057V13.566C21.4057 12.2305 21.7652 11.3164 23.6265 11.3164H26V7.18281C25.5913 7.12695 24.183 7 22.5432 7C19.1208 7 16.7769 9.15312 16.7769 13.109V16.75H13V21.3711H16.7769Z" fill="white"/>
</svg>
