<svg width="40" height="40" viewBox="0 0 40 40" fill="none" xmlns="http://www.w3.org/2000/svg">
<path d="M16.0031 20C16.0031 22.2064 17.8021 24.0004 20.0027 24.0004C22.2032 24.0004 24.0022 22.2064 24.0022 20C24.0022 17.7936 22.2086 15.9996 20.0027 15.9996C17.7968 15.9996 16.0031 17.7936 16.0031 20Z" fill="white"/>
<path fill-rule="evenodd" clip-rule="evenodd" d="M27.0755 29.3558C28.1303 28.9327 28.9388 28.1241 29.3564 27.0744C29.8937 25.724 29.8638 22.77 29.8444 20.8551C29.8412 20.5374 29.8383 20.2484 29.8383 20C29.8383 19.7516 29.8412 19.4626 29.8444 19.145C29.8638 17.2312 29.8937 14.2806 29.3564 12.9256C28.9334 11.8706 28.1249 11.0619 27.0755 10.6442C25.7211 10.1097 22.7535 10.1382 20.8396 10.1565C20.5291 10.1595 20.2463 10.1622 20.0027 10.1622C19.7543 10.1622 19.4654 10.1593 19.1479 10.1561C17.2345 10.1367 14.2845 10.1068 12.9298 10.6442C11.8751 11.0673 11.0666 11.8759 10.649 12.9256C10.1146 14.2803 10.143 17.2486 10.1614 19.1629C10.1644 19.4735 10.1671 19.7563 10.1671 20C10.1671 20.2484 10.1642 20.5374 10.1609 20.855C10.1416 22.7688 10.1117 25.7194 10.649 27.0744C11.0719 28.1294 11.8804 28.9381 12.9298 29.3558C14.2842 29.8903 17.2519 29.8618 19.1658 29.8435C19.4763 29.8405 19.759 29.8378 20.0027 29.8378C20.2511 29.8378 20.54 29.8407 20.8575 29.8439C22.7709 29.8633 25.7208 29.8932 27.0755 29.3558ZM13.8508 20C13.8508 16.594 16.5974 13.8467 20.0027 13.8467C23.4079 13.8467 26.1546 16.594 26.1546 20C26.1546 23.406 23.4079 26.1533 20.0027 26.1533C16.5974 26.1533 13.8508 23.406 13.8508 20ZM26.4062 15.0302C27.1987 15.0302 27.8412 14.3929 27.8412 13.595C27.8412 12.8024 27.1987 12.1598 26.4062 12.1598C25.6138 12.1598 24.9713 12.8024 24.9713 13.595C24.9713 14.3876 25.6085 15.0302 26.4062 15.0302Z" fill="white"/>
<path fill-rule="evenodd" clip-rule="evenodd" d="M20 40C31.0457 40 40 31.0457 40 20C40 8.9543 31.0457 0 20 0C8.9543 0 0 8.9543 0 20C0 31.0457 8.9543 40 20 40ZM29.9775 10.023C31.3856 11.4261 31.8247 13.1291 31.9157 15.0517C32.0281 17.0331 32.0281 22.9669 31.9157 24.9483C31.8193 26.8709 31.3803 28.5739 29.9775 29.977C28.5747 31.3855 26.8721 31.8246 24.9499 31.9157C22.9689 32.0281 17.0311 32.0281 15.0501 31.9157C13.1279 31.8193 11.4307 31.3801 10.0225 29.977C8.61439 28.5739 8.17535 26.8709 8.08433 24.9483C7.97189 22.9669 7.97189 17.0278 8.08433 15.0463C8.1807 13.1237 8.61439 11.4207 10.0225 10.0176C11.4307 8.61453 13.1333 8.17539 15.0501 8.08435C17.0311 7.97188 22.9689 7.97188 24.9499 8.08435C26.8721 8.18074 28.5747 8.61988 29.9775 10.023Z" fill="white"/>
</svg>
