<?xml version="1.0" encoding="UTF-8"?><svg id="Layer_1" xmlns="http://www.w3.org/2000/svg" viewBox="0 0 40 40"><defs><style>.cls-1{fill:#fff;}</style></defs><path class="cls-1" d="M20,.25C9.09,.25,.25,9.09,.25,20s8.84,19.75,19.75,19.75,19.75-8.84,19.75-19.75S30.91,.25,20,.25Zm-5.32,30.19h-4.66V15.45h4.66v14.99Zm-2.33-17.03c-1.49,0-2.7-1.21-2.7-2.7s1.21-2.7,2.7-2.7,2.7,1.21,2.7,2.7-1.21,2.7-2.7,2.7Zm19.78,17.03h-4.66v-7.29c0-1.74-.03-3.97-2.42-3.97s-2.79,1.89-2.79,3.85v7.41h-4.66V15.45h4.47v2.05h.06c.62-1.18,2.14-2.42,4.41-2.42,4.72,0,5.59,3.1,5.59,7.14v8.22Z"/></svg>