<svg width="20" height="13" viewBox="0 0 20 13" fill="none" xmlns="http://www.w3.org/2000/svg">
<path d="M18.2422 0H1.75781C0.789766 0 0 0.6732 0 1.5V11.5C0 12.324 0.78625 13 1.75781 13H18.2422C19.2078 13 20 12.3291 20 11.5V1.5C20 0.676 19.2138 0 18.2422 0ZM17.9995 1L10.0373 7.79443L2.00621 1H17.9995ZM1.17188 11.2929V1.7023L6.81559 6.47697L1.17188 11.2929ZM2.00051 12L7.64777 7.181L9.62656 8.85507C9.85563 9.04887 10.2253 9.04823 10.4534 8.85353L12.3828 7.2071L17.9995 12H2.00051ZM18.8281 11.2929L13.2114 6.5L18.8281 1.70707V11.2929Z" fill="white"/>
</svg>
