<svg xmlns="http://www.w3.org/2000/svg" width="16" height="11.205" viewBox="0 0 16 11.205">
  <path id="consult_ic" d="M120.913-733.233a1.8,1.8,0,0,1-1.311-.54,1.772,1.772,0,0,1-.545-1.306,1.8,1.8,0,0,1,.54-1.311,1.772,1.772,0,0,1,1.306-.545,1.8,1.8,0,0,1,1.311.54,1.771,1.771,0,0,1,.545,1.306,1.8,1.8,0,0,1-.54,1.311A1.771,1.771,0,0,1,120.913-733.233Zm-3.405,3.44v-.233a.974.974,0,0,1,.052-.326.836.836,0,0,1,.16-.271,4.659,4.659,0,0,1,1.487-.859,5.09,5.09,0,0,1,1.7-.286,5.09,5.09,0,0,1,1.7.286,4.659,4.659,0,0,1,1.487.859.836.836,0,0,1,.16.271.974.974,0,0,1,.052.326v.233a.67.67,0,0,1-.2.493.669.669,0,0,1-.493.2H118.2a.669.669,0,0,1-.493-.2A.67.67,0,0,1,117.508-729.793Zm-3.431-5.175a2.574,2.574,0,0,1-1.891-.778,2.574,2.574,0,0,1-.777-1.891,2.575,2.575,0,0,1,.777-1.891,2.575,2.575,0,0,1,1.891-.777,2.575,2.575,0,0,1,1.891.777,2.575,2.575,0,0,1,.778,1.891,2.574,2.574,0,0,1-.778,1.891A2.574,2.574,0,0,1,114.077-734.969ZM114.077-737.637Zm-5.768,7.052a1.616,1.616,0,0,1,.24-.86,1.746,1.746,0,0,1,.656-.622,9.615,9.615,0,0,1,2.348-1,9.465,9.465,0,0,1,2.525-.341,9.293,9.293,0,0,1,1.974.21,8.777,8.777,0,0,1,1.888.642,2.5,2.5,0,0,0-.743.235,6.034,6.034,0,0,0-.657.386q-.6-.152-1.22-.253a7.7,7.7,0,0,0-1.242-.1,8.951,8.951,0,0,0-2.213.276,7.4,7.4,0,0,0-2.066.879,1.125,1.125,0,0,0-.255.224.482.482,0,0,0-.114.323v.364h6.2v.306a2.142,2.142,0,0,0,.045.443.8.8,0,0,0,.182.37h-6.409a1.1,1.1,0,0,1-.8-.331,1.1,1.1,0,0,1-.331-.8ZM114.077-730.22Zm0-5.868a1.481,1.481,0,0,0,1.093-.457,1.5,1.5,0,0,0,.452-1.1,1.481,1.481,0,0,0-.457-1.093,1.5,1.5,0,0,0-1.1-.452,1.482,1.482,0,0,0-1.093.456,1.5,1.5,0,0,0-.452,1.1,1.482,1.482,0,0,0,.457,1.093A1.5,1.5,0,0,0,114.082-736.088Z" transform="translate(-108.309 740.306)" fill="#fff"/>
</svg>
