<svg xmlns="http://www.w3.org/2000/svg" width="16" height="16" viewBox="0 0 16 16">
  <g id="phoneic" transform="translate(-438 -122)">
    <path id="phone_ic" d="M227.787-875.922a1.277,1.277,0,0,1-.937-.387,1.276,1.276,0,0,1-.387-.937V-890.6a1.277,1.277,0,0,1,.387-.937,1.277,1.277,0,0,1,.937-.387h7.2a1.277,1.277,0,0,1,.937.387,1.277,1.277,0,0,1,.387.937v13.352a1.276,1.276,0,0,1-.387.937,1.277,1.277,0,0,1-.937.387Zm-.237-2.089v.764a.228.228,0,0,0,.075.164.229.229,0,0,0,.164.075h7.2a.229.229,0,0,0,.164-.075.228.228,0,0,0,.075-.164v-.764Zm0-1.087h7.674v-9.648H227.55Zm0-10.735h7.674v-.763a.229.229,0,0,0-.075-.164.229.229,0,0,0-.164-.075h-7.2a.228.228,0,0,0-.164.075.228.228,0,0,0-.075.164Zm0,0v0Zm0,11.821v0Z" transform="translate(214.613 1013.922)" fill="#fff"/>
    <path id="Path_1" data-name="Path 1" d="M0,0H16V16H0Z" transform="translate(438 122)" fill="none"/>
  </g>
</svg>
