<?xml version="1.0" encoding="utf-8"?>
<!-- Generator: Adobe Illustrator 26.0.0, SVG Export Plug-In . SVG Version: 6.00 Build 0)  -->
<svg version="1.1" id="Layer_1" xmlns="http://www.w3.org/2000/svg" xmlns:xlink="http://www.w3.org/1999/xlink" x="0px" y="0px"
	 viewBox="0 0 40 40" style="enable-background:new 0 0 40 40;" xml:space="preserve">
<style type="text/css">
	.st0{fill-rule:evenodd;clip-rule:evenodd;}
	.st1{fill-rule:evenodd;clip-rule:evenodd;fill:#010101;}
	.st2{fill-rule:evenodd;clip-rule:evenodd;fill:#EE1D51;}
	.st3{fill-rule:evenodd;clip-rule:evenodd;fill:#66C8CF;}
	.st4{fill-rule:evenodd;clip-rule:evenodd;fill:#FFFFFF;}
	.st5{fill-rule:evenodd;clip-rule:evenodd;fill:#EE1D52;}
	.st6{fill-rule:evenodd;clip-rule:evenodd;fill:#69C9D0;}
	.st7{fill-rule:evenodd;clip-rule:evenodd;fill:none;stroke:#FFFFFF;stroke-width:0.2743;stroke-miterlimit:10;}
	.st8{fill-rule:evenodd;clip-rule:evenodd;fill:none;stroke:#FFFFFF;stroke-width:0.25;stroke-miterlimit:10;}
	
		.st9{clip-path:url(#SVGID_00000072966943835485897420000011345121876691037333_);fill-rule:evenodd;clip-rule:evenodd;fill:#010101;}
	
		.st10{clip-path:url(#SVGID_00000072966943835485897420000011345121876691037333_);fill-rule:evenodd;clip-rule:evenodd;fill:#EE1D51;}
	
		.st11{clip-path:url(#SVGID_00000072966943835485897420000011345121876691037333_);fill-rule:evenodd;clip-rule:evenodd;fill:#66C8CF;}
	
		.st12{clip-path:url(#SVGID_00000072966943835485897420000011345121876691037333_);fill-rule:evenodd;clip-rule:evenodd;fill:#FFFFFF;}
	
		.st13{clip-path:url(#SVGID_00000072966943835485897420000011345121876691037333_);fill-rule:evenodd;clip-rule:evenodd;fill:#EE1D52;}
	
		.st14{clip-path:url(#SVGID_00000072966943835485897420000011345121876691037333_);fill-rule:evenodd;clip-rule:evenodd;fill:#69C9D0;}
	
		.st15{clip-path:url(#SVGID_00000118368287444613146750000010679352861120857760_);fill-rule:evenodd;clip-rule:evenodd;fill:#010101;}
	
		.st16{clip-path:url(#SVGID_00000118368287444613146750000010679352861120857760_);fill-rule:evenodd;clip-rule:evenodd;fill:#EE1D51;}
	
		.st17{clip-path:url(#SVGID_00000118368287444613146750000010679352861120857760_);fill-rule:evenodd;clip-rule:evenodd;fill:#66C8CF;}
	
		.st18{clip-path:url(#SVGID_00000118368287444613146750000010679352861120857760_);fill-rule:evenodd;clip-rule:evenodd;fill:#FFFFFF;}
	
		.st19{clip-path:url(#SVGID_00000118368287444613146750000010679352861120857760_);fill-rule:evenodd;clip-rule:evenodd;fill:#EE1D52;}
	
		.st20{clip-path:url(#SVGID_00000118368287444613146750000010679352861120857760_);fill-rule:evenodd;clip-rule:evenodd;fill:#69C9D0;}
	.st21{fill:#FFFFFF;}
</style>
<g>
	<path class="st4" d="M20,0C8.95,0,0,8.95,0,20s8.95,20,20,20s20-8.95,20-20S31.05,0,20,0z M32.63,17.54c-2.45,0-4.72-0.78-6.58-2.1
		l0,9.63c0,4.83-3.9,8.73-8.73,8.73c-2.45,0-4.66-1-6.24-2.62c-1.54-1.57-2.49-3.73-2.49-6.11c0-4.76,3.8-8.63,8.54-8.72
		c0.47-0.01,0.93,0.01,1.38,0.08l0,4.83c-0.39-0.12-0.8-0.19-1.2-0.19c-2.22,0-4,1.79-4.01,3.99c0,0.88,0.29,1.72,0.82,2.42
		c0.73,0.96,1.88,1.57,3.18,1.57c2.19,0,3.98-1.78,3.99-3.98l0-18.85l4.75,0l0,0.61c0.13,1.47,0.75,2.81,1.71,3.85
		c0.92,1.01,2.15,1.72,3.49,2c0.46,0.1,0.92,0.15,1.38,0.15L32.63,17.54z"/>
</g>
</svg>
