<svg xmlns="http://www.w3.org/2000/svg" width="14.288" height="14.288" viewBox="0 0 14.288 14.288">
  <path id="workh_ic" d="M123.655-837.368v-3.687a.5.5,0,0,0-.146-.364.488.488,0,0,0-.361-.147.5.5,0,0,0-.365.147.489.489,0,0,0-.149.364v3.868a.584.584,0,0,0,.051.249.7.7,0,0,0,.142.2l2.725,2.725a.484.484,0,0,0,.364.16.54.54,0,0,0,.368-.177.512.512,0,0,0,.171-.365.519.519,0,0,0-.177-.37Zm-.509,7.657a6.958,6.958,0,0,1-2.775-.558,7.215,7.215,0,0,1-2.277-1.535,7.2,7.2,0,0,1-1.536-2.278,6.98,6.98,0,0,1-.558-2.781,6.993,6.993,0,0,1,.558-2.782,7.086,7.086,0,0,1,1.535-2.27,7.285,7.285,0,0,1,2.278-1.526,6.979,6.979,0,0,1,2.781-.558,6.943,6.943,0,0,1,2.782.563,7.21,7.21,0,0,1,2.266,1.527,7.213,7.213,0,0,1,1.526,2.268,6.959,6.959,0,0,1,.562,2.786,6.957,6.957,0,0,1-.558,2.775,7.3,7.3,0,0,1-1.525,2.277,7.074,7.074,0,0,1-2.272,1.536A7.011,7.011,0,0,1,123.146-829.711ZM123.145-836.855Zm.009,6.124a5.879,5.879,0,0,0,4.328-1.8,5.925,5.925,0,0,0,1.786-4.337,5.894,5.894,0,0,0-1.786-4.328,5.894,5.894,0,0,0-4.328-1.787,5.925,5.925,0,0,0-4.337,1.787,5.879,5.879,0,0,0-1.8,4.328,5.91,5.91,0,0,0,1.8,4.337A5.91,5.91,0,0,0,123.155-830.731Z" transform="translate(-116.001 843.999)" fill="#fff"/>
</svg>
