<svg width="40" height="40" viewBox="0 0 40 40" fill="none" xmlns="http://www.w3.org/2000/svg">
<path d="M17.1818 16.2118V23.8246L23.8727 20.0183L17.1818 16.2118Z" fill="white"/>
<path fill-rule="evenodd" clip-rule="evenodd" d="M20 40C31.0457 40 40 31.0457 40 20C40 8.9543 31.0457 0 20 0C8.9543 0 0 8.9543 0 20C0 31.0457 8.9543 40 20 40ZM29.8018 11.5384C30.9032 11.8347 31.7707 12.7078 32.0651 13.8164C32.6001 15.8258 32.6001 20.0182 32.6001 20.0182C32.6001 20.0182 32.6001 24.2106 32.0651 26.22C31.7707 27.3286 30.9032 28.1653 29.8018 28.4616C27.8054 29 19.8 29 19.8 29C19.8 29 11.7947 29 9.79825 28.4616C8.69683 28.1653 7.82936 27.3286 7.53494 26.22C7 24.2106 7 20.0182 7 20.0182C7 20.0182 7 15.8258 7.53494 13.8164C7.82936 12.7078 8.69683 11.8348 9.79825 11.5384C11.7947 11 19.8 11 19.8 11C19.8 11 27.8054 11 29.8018 11.5384Z" fill="white"/>
</svg>
